<svg width="121" height="44" viewBox="0 0 121 44" fill="none" xmlns="http://www.w3.org/2000/svg">
<path fill-rule="evenodd" clip-rule="evenodd" d="M44.9006 14.3068C44.8066 14.7939 44.3802 15.1459 43.8841 15.1459L37.6504 15.1459C37.5697 15.1459 37.5086 15.0727 37.5231 14.9933L37.8584 13.1489C37.9479 12.6566 38.3767 12.2988 38.877 12.2988L45.1315 12.2988C45.2128 12.2988 45.2739 12.3729 45.2585 12.4528L44.9006 14.3068Z" fill="#4C4C4C"/>
<path fill-rule="evenodd" clip-rule="evenodd" d="M10.0464 14.8321C9.94964 15.3161 9.52475 15.6644 9.03125 15.6644H1.61752C1.12401 15.6644 0.699117 15.3161 0.602333 14.8321L0.282098 13.231C0.266082 13.1509 0.327331 13.0762 0.408995 13.0762H10.2398C10.3214 13.0762 10.3827 13.1509 10.3667 13.231L10.0464 14.8321Z" fill="#4C4C4C"/>
<path fill-rule="evenodd" clip-rule="evenodd" d="M18.052 14.62C18.052 14.5485 17.9941 14.4906 17.9226 14.4906H13.0689C12.5754 14.4906 12.1505 14.1422 12.0537 13.6583L11.7335 12.0571C11.7175 11.9771 11.7787 11.9023 11.8604 11.9023H20.5108C20.5823 11.9023 20.6403 11.9603 20.6403 12.0318V19.5881C20.6403 20.4457 19.945 21.141 19.0873 21.141H14.5332C14.4617 21.141 14.4038 21.1989 14.4038 21.2704V28.1008C14.4038 28.5943 14.0554 29.0192 13.5715 29.116L11.9703 29.4362C11.8902 29.4522 11.8155 29.391 11.8155 29.3093V19.5881C11.8155 19.0163 12.279 18.5528 12.8508 18.5528H17.9226C17.9941 18.5528 18.052 18.4948 18.052 18.4234V14.62Z" fill="#4C4C4C"/>
<path fill-rule="evenodd" clip-rule="evenodd" d="M10.3264 25.4532C10.2296 25.9372 9.8047 26.2855 9.3112 26.2855H4.71191V23.6973H10.5197C10.6014 23.6973 10.6626 23.772 10.6466 23.8521L10.3264 25.4532Z" fill="#4C4C4C"/>
<path fill-rule="evenodd" clip-rule="evenodd" d="M6.04527 10.3519C6.52919 10.4487 6.87752 10.8736 6.87752 11.3671L6.87752 31.3418L4.28931 31.3418L4.28931 10.0007L6.04527 10.3519Z" fill="#4C4C4C"/>
<path fill-rule="evenodd" clip-rule="evenodd" d="M20.4851 22.7129C20.5652 22.6969 20.6399 22.7581 20.6399 22.8398L20.6399 28.4315C20.6399 29.0033 20.1764 29.4668 19.6046 29.4668L18.0517 29.4668L17.2705 29.4668C17.1472 29.4668 17.0938 29.3107 17.1912 29.2352L17.4509 29.0336C17.8299 28.7395 18.0517 28.2866 18.0517 27.8068L18.0517 24.0483C18.0517 23.5548 18.4 23.1299 18.8839 23.0331L20.4851 22.7129Z" fill="#4C4C4C"/>
<path fill-rule="evenodd" clip-rule="evenodd" d="M10.3261 19.9825C10.2293 20.4664 9.80439 20.8148 9.31089 20.8148H1.33797C0.844473 20.8148 0.419576 20.4664 0.322792 19.9825L0.00255705 18.3814C-0.0134586 18.3013 0.0477903 18.2266 0.129455 18.2266H10.5194C10.6011 18.2266 10.6623 18.3013 10.6463 18.3814L10.3261 19.9825Z" fill="#4C4C4C"/>
<path fill-rule="evenodd" clip-rule="evenodd" d="M2.82481 30.7067C2.75333 30.7067 2.6954 30.6487 2.6954 30.5773V24.7306C2.6954 24.2371 2.34706 23.8122 1.86314 23.7154L0.261968 23.3951C0.18189 23.3791 0.107178 23.4404 0.107178 23.522V31.7419C0.107178 32.5996 0.802446 33.2949 1.6601 33.2949L20.1329 33.2949C20.6264 33.2949 21.0513 32.9466 21.1481 32.4627L21.4683 30.8615C21.4844 30.7814 21.4231 30.7067 21.3414 30.7067L2.82481 30.7067Z" fill="#4C4C4C"/>
<path fill-rule="evenodd" clip-rule="evenodd" d="M35.3536 10.3626C35.8459 10.4521 36.2037 10.8809 36.2037 11.3812L36.2037 18.5132C36.2037 18.5846 36.1458 18.6426 36.0743 18.6426L33.4861 18.6426C33.4146 18.6426 33.3567 18.5846 33.3567 18.5132L33.3567 10.1546C33.3567 10.0739 33.4298 10.0128 33.5092 10.0273L35.3536 10.3626Z" fill="#4C4C4C"/>
<path fill-rule="evenodd" clip-rule="evenodd" d="M27.8544 28.4122C28.3466 28.5017 28.7045 28.9305 28.7045 29.4308L28.7045 33.3881C28.7045 33.4689 28.6313 33.5299 28.5519 33.5155L26.7075 33.1801C26.2152 33.0906 25.8574 32.6619 25.8574 32.1615L25.8574 28.2042C25.8574 28.1235 25.9305 28.0624 26.01 28.0769L27.8544 28.4122Z" fill="#4C4C4C"/>
<path fill-rule="evenodd" clip-rule="evenodd" d="M33.7868 29.2211C34.2885 29.302 34.6573 29.735 34.6573 30.2432L34.6573 33.392C34.6573 33.4717 34.586 33.5325 34.5073 33.5198L32.6808 33.2254C32.1791 33.1445 31.8103 32.7115 31.8103 32.2033L31.8103 29.0544C31.8103 28.9747 31.8816 28.914 31.9603 28.9267L33.7868 29.2211Z" fill="#4C4C4C"/>
<path fill-rule="evenodd" clip-rule="evenodd" d="M39.7397 29.2211C40.2414 29.302 40.6102 29.735 40.6102 30.2432L40.6102 33.392C40.6102 33.4717 40.5389 33.5325 40.4602 33.5198L38.6337 33.2254C38.132 33.1445 37.7632 32.7115 37.7632 32.2033L37.7632 29.0544C37.7632 28.9747 37.8345 28.914 37.9132 28.9267L39.7397 29.2211Z" fill="#4C4C4C"/>
<path fill-rule="evenodd" clip-rule="evenodd" d="M45.713 28.4122C46.2053 28.5017 46.5631 28.9305 46.5631 29.4308L46.5631 33.3881C46.5631 33.4689 46.49 33.5299 46.4105 33.5155L44.5662 33.1801C44.0739 33.0906 43.7161 32.6619 43.7161 32.1615L43.7161 28.2042C43.7161 28.1235 43.7892 28.0624 43.8686 28.0769L45.713 28.4122Z" fill="#4C4C4C"/>
<path fill-rule="evenodd" clip-rule="evenodd" d="M27.0918 17.4946C27.0918 17.4232 27.1497 17.3652 27.2212 17.3652H45.186C45.2575 17.3652 45.3154 17.4232 45.3154 17.4946V24.67C45.3154 26.0995 44.1566 27.2583 42.7272 27.2583H29.68C28.2506 27.2583 27.0918 26.0995 27.0918 24.67V17.4946ZM30.0682 20.2123C29.9968 20.2123 29.9388 20.2702 29.9388 20.3417V23.8936C29.9388 24.1795 30.1706 24.4112 30.4565 24.4112H41.9507C42.2366 24.4112 42.4684 24.1795 42.4684 23.8936V20.3417C42.4684 20.2702 42.4104 20.2123 42.3389 20.2123H30.0682Z" fill="#4C4C4C"/>
<path fill-rule="evenodd" clip-rule="evenodd" d="M60.2289 33.9974C60.1495 34.0117 60.0765 33.9507 60.0765 33.87V25.1353H54.6655V25.5272C54.6655 26.0285 54.3064 26.4577 53.813 26.5462L51.9328 26.8836C51.8534 26.8978 51.7805 26.8368 51.7805 26.7562V14.3528C51.7805 14.2814 51.8385 14.2234 51.9099 14.2234H51.9361H60.0765V10.2115C60.0765 10.1308 60.1495 10.0698 60.2289 10.0841L62.1106 10.425C62.6032 10.5142 62.9614 10.9431 62.9614 11.4437V14.2234H71.1015H71.1277C71.1991 14.2234 71.2571 14.2814 71.2571 14.3528V26.7562C71.2571 26.8368 71.1842 26.8978 71.1048 26.8836L69.2246 26.5462C68.7312 26.4577 68.3721 26.0285 68.3721 25.5272V25.1353H62.9614V32.6378C62.9614 33.1384 62.6032 33.5673 62.1106 33.6565L60.2289 33.9974ZM60.0765 22.2503V17.0705H54.7949C54.7234 17.0705 54.6655 17.1284 54.6655 17.1999V22.2503H60.0765ZM62.9614 22.2503H68.3721V17.1999C68.3721 17.1284 68.3142 17.0705 68.2427 17.0705H62.9614V22.2503Z" fill="#4C4C4C"/>
<path fill-rule="evenodd" clip-rule="evenodd" d="M87.6091 13.8547L96.5837 13.8547C96.665 13.8547 96.7262 13.9288 96.7108 14.0086L96.3529 15.8627C96.2588 16.3498 95.8325 16.7017 95.3364 16.7017H93.3302C92.2452 20.4704 90.3223 23.8398 88.0029 26.6684C90.0794 28.6507 92.8426 30.2095 96.6139 31.1577C96.6911 31.1771 96.7345 31.26 96.7059 31.3342C96.5776 31.6663 96.3649 32.274 96.1855 32.795C96.0046 33.3202 95.4425 33.6143 94.9138 33.4438C91.2405 32.2589 88.2893 30.6956 86.056 28.5917C83.8217 30.6967 80.8557 32.2605 77.0973 33.4456C76.5658 33.6132 76.0025 33.3168 75.8222 32.7895C75.6434 32.2665 75.4374 31.6762 75.3048 31.3339C75.2762 31.2599 75.319 31.1772 75.396 31.1579C79.182 30.2077 82.0517 28.6508 84.1263 26.6684C81.858 23.893 79.7336 20.3718 78.6442 16.7017H76.674C76.1779 16.7017 75.7515 16.3498 75.6575 15.8627L75.2996 14.0086C75.2842 13.9288 75.3453 13.8547 75.4266 13.8547L84.9238 13.8547C84.9205 13.8212 84.9188 13.7873 84.9188 13.7531V10.1861C84.9188 10.1048 84.9929 10.0437 85.0727 10.059L86.7694 10.3855C87.2568 10.4793 87.6091 10.9058 87.6091 11.4021V13.8547ZM81.6737 16.7017C82.1171 18.1303 83.6037 21.646 86.056 24.7571C88.5418 21.6567 89.8896 18.3477 90.4039 16.7017C90.4039 16.7017 87.965 16.7017 86.1928 16.7017C84.5557 16.7017 81.6737 16.7017 81.6737 16.7017Z" fill="#4C4C4C"/>
<path fill-rule="evenodd" clip-rule="evenodd" d="M103.785 14.7494C103.713 14.7494 103.655 14.8073 103.655 14.8788V32.2649C103.655 32.7661 103.296 33.1954 102.803 33.2839L100.923 33.6213C100.843 33.6355 100.771 33.5745 100.771 33.4939V12.0318C100.771 11.9603 100.828 11.9023 100.9 11.9023H100.926H120.609H120.635C120.707 11.9023 120.765 11.9603 120.765 12.0318V24.4351C120.765 24.4368 120.765 24.4384 120.765 24.44V30.7451C120.765 32.1745 119.606 33.3333 118.176 33.3333H115.016C114.517 33.3333 114.088 32.9768 113.998 32.4856L113.658 30.6391C113.643 30.5596 113.704 30.4863 113.785 30.4863H117.362C117.648 30.4863 117.88 30.2545 117.88 29.9686V25.8272L117.88 25.8266L117.88 23.1096L117.88 23.1056V14.8788C117.88 14.8073 117.822 14.7494 117.75 14.7494H103.785ZM105.165 16.8118C104.737 16.9633 104.454 17.3769 104.5 17.8288C104.815 20.9238 106.176 23.6533 106.176 23.6533C106.176 23.6533 104.72 26.4384 104.011 27.5186C103.97 27.5812 103.989 27.6653 104.053 27.7035L104.953 28.2381C105.44 28.5274 106.069 28.3705 106.365 27.8874C106.996 26.8567 106.996 26.8561 107.404 26.2325C107.431 26.1919 107.459 26.1487 107.489 26.1023C107.882 26.5253 108.061 26.7117 108.155 26.8077C108.581 27.2418 109.262 27.2934 109.691 26.8618L110.359 26.1884C110.407 26.14 110.41 26.0627 110.365 26.0108C109.58 25.0899 108.827 23.7272 108.827 23.7272C108.827 23.7272 110.171 20.8357 110.494 17.8197C110.542 17.3722 110.266 16.9604 109.844 16.8038L108.612 16.3465C108.534 16.3176 108.45 16.3681 108.437 16.4501C108.205 17.9732 107.499 20.3149 107.499 20.3149C107.499 20.3149 106.886 17.963 106.661 16.4476C106.649 16.3664 106.566 16.3159 106.489 16.3433L105.165 16.8118ZM111.709 16.8199C111.297 16.9678 111.018 17.3598 111.052 17.7965C111.282 20.7127 112.723 23.6533 112.723 23.6533C112.723 23.6533 111.818 25.5992 109.356 27.937C109.299 27.991 109.301 28.0834 109.362 28.1329L110.338 28.9281C110.742 29.257 111.329 29.2363 111.69 28.8613C113.05 27.4502 114.045 26.0498 114.045 26.0498C114.045 26.0498 114.515 26.9533 115.299 28.1604C115.64 28.6844 116.368 28.761 116.828 28.3372L117.507 27.71C117.555 27.6659 117.563 27.5936 117.527 27.5398C116.768 26.4195 115.349 23.5542 115.349 23.5542C115.349 23.5542 116.776 21.1019 117.105 17.9359C117.152 17.4804 116.864 17.0636 116.431 16.9145L115.055 16.4409C114.978 16.4143 114.895 16.4653 114.883 16.5465C114.666 18.0632 114.045 20.3149 114.045 20.3149C114.045 20.3149 113.432 18.0177 113.207 16.4494C113.195 16.3676 113.112 16.3166 113.034 16.3445L111.709 16.8199Z" fill="#4C4C4C"/>
</svg>
